<?xml version="1.0" encoding="UTF-8"?>
<svg id="_Слой_2" data-name="Слой 2" xmlns="http://www.w3.org/2000/svg" viewBox="0 0 495.86 496.71">
  <defs>
    <style>
      .cls-1 {
        fill: #d8ecfe;
      }

      .cls-2 {
        fill: #d8ebfd;
      }

      .cls-3 {
        fill: #ffcebf;
      }

      .cls-4 {
        fill: #fd8289;
      }

      .cls-5 {
        fill: #fd8188;
      }

      .cls-6 {
        fill: #adb8c0;
      }

      .cls-7 {
        fill: #fe646f;
      }

      .cls-8 {
        fill: #7b8d98;
      }

      .cls-9 {
        fill: #909da9;
      }

      .cls-10 {
        fill: #ffa78f;
      }

      .cls-11 {
        fill: #fd8087;
      }

      .cls-12 {
        fill: #5a6d77;
      }

      .cls-13 {
        fill: #fea78f;
      }

      .cls-14 {
        fill: #7a8c98;
      }

      .cls-15 {
        fill: #eaf6ff;
      }

      .cls-16 {
        fill: #ffcdbe;
      }

      .cls-17 {
        fill: #e1e5e8;
      }

      .cls-18 {
        fill: #6fd7a3;
      }

      .cls-19 {
        fill: #ffb09e;
      }

      .cls-20 {
        fill: #8d9ca8;
      }

      .cls-21 {
        fill: #c4e2ff;
      }
    </style>
  </defs>
  <g id="_Слой_1-2" data-name="Слой 1">
    <g>
      <path class="cls-15" d="m0,487.83c0-39.12,0-78.23,0-117.35.32-.7.82-1.37.93-2.1,2.09-13.87,7.97-25.85,17.44-36.22,9.07-9.91,20.37-15.9,32.96-19.86,13.26-2.31,26.52-4.62,39.78-6.93-.04,2.25-.06,4.51-.11,6.76-.07,3-1.09,6.37-.07,8.92,4.95,12.38,10.45,24.55,15.75,36.79.67,4.51,3.27,7.09,7.76,7.78,10.35,10.66,20.69,21.32,31.04,31.98,1.03,2.07,1.63,4.56,3.16,6.13,4.58,4.68,8,10.92,15.25,12.33.34.64.67,1.27,1.01,1.91,0,26.19-.01,52.38-.02,78.57-25.23,0-50.45,0-75.68,0,0-27.47,0-54.94.01-82.41.85-3.4-1.51-6.78-5.97-7.54-3.29-.56-6.56.03-6.64,4.62h0c-4.7,1.08-4.82,4.83-4.83,8.52-.03,25.61-.02,51.22-.02,76.83-18.22,0-36.45-.28-54.67.15-7.72.18-13.5-1.84-17.1-8.87Z"/>
      <path class="cls-20" d="m51.43,137.78c0-11.37-1.06-22.85.22-34.07,2.52-22.14,11.18-42.12,25.2-59.53C93.47,23.53,114.75,9.98,140.44,3.44,145.33,2.2,150.26,1.14,155.17,0c4.85,0,9.7,0,14.55,0,.92.98,1.68,2.48,2.8,2.84,5.79,1.84,12.11,2.52,17.42,5.22,10.24,5.19,19.9,11.51,29.87,17.25,1.57.9,3.46,1.24,5.2,1.84h0c2.59,7.1,7.79,11.61,14.55,14.55h0c.49,1.62.56,3.57,1.53,4.82,12.39,16.04,20.31,33.99,23.77,53.97.21,1.22,1.84,2.2,2.8,3.29,0,.97.01,1.94.02,2.91-2.71,2.69-3.51,5.11.95,6.79.02,1.86.03,3.73.05,5.6-2.26.05-4.53.09-6.79.14-.33-3.64-.84-7.27-.96-10.91-.18-5.39-2.83-8.31-8.3-8.37-6.29-.07-12.58.08-18.88.13-2.9-.04-5.83-.34-8.7-.07-5.17.49-8.32-2.31-9.22-6.67-1.04-5.08-.72-10.43-1.08-15.66-.16-2.25.23-5.57-1.01-6.46-1.63-1.17-4.86-1.08-7.01-.36-11.5,3.86-17.54,13.16-22.05,23.59-1.81,4.18-4.25,5.65-8.82,5.61-27.74-.2-55.49-.12-83.24-.09-6.34,0-9.16,2.85-9.27,9.1-.05,3.06-.05,6.13-.07,9.19l-.94,1.02c-4.12.3-8.35.11-12.34,1.01-9.49,2.15-14.77,9.14-18.59,17.5Z"/>
      <path class="cls-7" d="m495.38,372.34c-3.33,13.32-9.73,24.95-19.25,34.83-1.88,1.95-3.96,3.71-5.87,5.62-25.69,25.68-51.37,51.37-77.07,77.04-3.04,3.03-5.62,7.24-11.07,5-2.55-2.35-5.11-4.69-7.66-7.04-.38-.6-.75-1.19-1.13-1.79,1.27-1.45,2.47-2.97,3.83-4.33,23.86-23.89,47.75-47.74,71.58-71.65,2.83-2.84,5.59-5.82,8-9.03,12.62-16.85,19.19-35.26,13.64-56.47-5.2-19.84-17.49-33.71-36.15-42.09-1.32-.59-2.4-1.74-3.59-2.64,19.53-1.34,36.34,4.52,49.82,19,8.4,9.03,13.89,19.55,15.13,31.9.55,5.48.08,11.07.22,16.6"/>
      <path class="cls-8" d="m268.68,119.06c-.02-1.86-.03-3.73-.05-5.59-.32-2.26-.63-4.53-.95-6.79,0-.97-.01-1.94-.02-2.91-2.11-16.99-7.75-32.78-16.78-47.26-3.27-5.25-7.52-9.9-11.32-14.82,0,0,0,0,0,0-4.85-4.85-9.7-9.7-14.55-14.55,0,0,0,0,0,0-4.2-3.39-8.17-7.15-12.66-10.1-10.5-6.89-21.89-11.96-34.07-15.2-.71-.19-1.19-1.22-1.77-1.86,4.2,0,8.41,0,12.61,0,6.54,1.59,13.15,2.97,19.62,4.81,22.39,6.37,40.94,18.59,56.19,36.26,14.31,16.6,23.48,35.6,26.64,57.07,1.86,12.64,1.38,25.62,1.96,38.45-.52.06-1.04.12-1.56.18-4.26-10.5-12.57-15.69-23.28-17.7Z"/>
      <path class="cls-20" d="m176.51,0c.59.64,1.07,1.67,1.77,1.86,12.18,3.24,23.57,8.3,34.07,15.2,4.49,2.95,8.46,6.71,12.66,10.1-1.74-.6-3.64-.94-5.2-1.84-9.96-5.74-19.63-12.06-29.87-17.25-5.32-2.7-11.64-3.38-17.42-5.22-1.12-.36-1.87-1.86-2.8-2.84,2.26,0,4.53,0,6.79,0Z"/>
      <path class="cls-11" d="m430.64,299.8c1.19.89,2.26,2.04,3.59,2.64,18.65,8.38,30.94,22.24,36.15,42.09,5.56,21.21-1.01,39.63-13.64,56.47-2.4,3.21-5.16,6.18-8,9.03-23.83,23.91-47.73,47.77-71.58,71.65-1.36,1.36-2.55,2.88-3.83,4.33-9.65-9.48-19.31-18.96-28.96-28.43-8.41-8.37-16.83-16.74-25.24-25.11-7.11-7.22-14.68-14.05-21.19-21.78-6-7.13-10.85-15.23-16.21-22.91-.12-.27-.24-.55-.36-.82-2.29-5.84-5.9-11.53-6.58-17.55-1.09-9.62-1.34-19.57,2.4-28.98,3.88-10.64,10.52-19.39,18.63-27.12,11.28-8.62,23.73-14.05,38.19-13.68,16.28.42,30.73,5.85,43.34,16.17,1.25,1.02,2.6,1.94,3.73,3.08,2.98,3.01,5.67,2.8,8.77-.02,10.71-9.74,23.22-16.05,37.43-18.93,1.08-.22,2.24-.08,3.36-.11Zm-53.34,89.9c-9.09-.8-17.08-12.03-19.49-21.86-.75-3.04-2.55-5.83-3.87-8.73-.66-.4-1.31-.8-1.97-1.2-2.05-.73-4.25-1.19-6.13-2.24-3.64-2.03-7.1-.73-9.58,1.35-1.85,1.55-3.57,5.29-2.94,7.29,1.1,3.5,3.82,6.64,8.72,5.49.8-.19,2.93,1.44,2.86,2.04-.73,5.96,2.78,10.34,5.45,14.9,6.22,10.6,16.24,16.1,27.5,19.22v11.8c-.96.13-1.6.19-2.23.31-4.88.92-7.51,3.97-7.07,8.19.4,3.85,3.51,6.28,8.31,6.33,5.98.06,11.96.11,17.93-.02,5.08-.11,7.35-3.06,7-8.13-.39-5.64-4.72-6.11-9.05-6.84,0-2.7.24-5.13-.06-7.5-.42-3.36.94-4.7,4.13-5.67,16.42-5.03,26.36-15.98,29.32-33.04.25-.15.44-.37.55-.64,2.06-.63,4.67-.69,6.06-2.02,1.98-1.89,4.03-4.65,4.19-7.15.11-1.67-2.7-4.39-4.77-5.18-7.19-2.76-18.78,3.51-19.94,11-1.23,7.99-5.77,13.63-11.39,18.64-2.24,2-5.26,3.11-7.79,4.56-.65-.77-1.03-1.02-1.03-1.26-.09-6.76-.12-13.52-.22-20.28-.08-5.17-2.09-7.29-6.79-7.27-4.56.01-6.7,2.27-6.79,7.38-.11,6.6-.13,13.2-.19,19.81-.25.25-.49.51-.74.76Z"/>
      <path class="cls-14" d="m293.52,154.37c.04,44.66.08,89.32.12,133.98,0,7.9.02,15.8.03,23.7-2.05-.54-4.07-1.3-6.15-1.58-6.26-.84-12.55-1.49-18.83-2.22,0-44.51,0-89.02,0-133.53,3.71-1.33,7.61-2.29,11.09-4.08,6.73-3.45,10.2-9.75,13.05-16.42.23.09.46.14.71.15Z"/>
      <path class="cls-2" d="m268.68,308.25c6.28.73,12.57,1.38,18.83,2.22,2.08.28,4.1,1.04,6.15,1.58.72.42,1.44.83,2.16,1.25-8.11,7.74-14.75,16.48-18.63,27.12-3.84-1.14-7.63-2.46-11.52-3.38-5.44-1.29-10.95-2.29-16.42-3.42.43-1.52.93-3.03,1.28-4.57,1.21-5.4,2.62-10.77,3.44-16.23.37-2.43-.46-5.04-.75-7.57,5.15,1,10.31,1.99,15.46,2.99Z"/>
      <path class="cls-6" d="m293.52,154.37c-.24-.01-.48-.06-.71-.15-.28-5.82-.57-11.64-.85-17.45.52-.06,1.04-.12,1.56-.18,0,5.93,0,11.86,0,17.78Z"/>
      <path class="cls-20" d="m51.34,312.3c.02-52.77.05-105.55.07-158.32,1.93,3.48,3.46,7.27,5.88,10.36,6.36,8.13,15.27,10.68,25.22,10.4.23.25.46.5.68.75.4,5.42.24,10.95,1.31,16.23,4.1,20.27,13.53,37.64,29.51,51.07,5.14,4.32,10.66,8.17,16,12.24,0,8.09,0,16.18-.01,24.27-.75,5.23-1.51,10.46-2.26,15.69-1.51-3.88-3.08-7.74-4.5-11.66-1.08-2.96-2.9-4.41-6.19-4.07-6.2.65-12.46.85-18.63,1.75-5.52.8-7.2,3.18-7.26,8.87-.05,5.15-.04,10.31-.05,15.47-13.26,2.31-26.52,4.62-39.78,6.93Z"/>
      <path class="cls-21" d="m91.12,305.37c.02-5.16,0-10.31.05-15.47.06-5.69,1.73-8.07,7.26-8.87,6.16-.89,12.42-1.1,18.63-1.75,3.29-.34,5.11,1.1,6.19,4.07,1.42,3.91,2.99,7.77,4.5,11.65.58,2.16,1.02,4.36,1.75,6.47,4.68,13.64,9.43,27.25,14.15,40.88,5.71,16.38,11.42,32.77,17.12,49.15.94,2.7,1.9,5.39,2.77,8.11,2.37,7.42,4.7,14.85,7.05,22.28-1.89-1.31-3.78-2.62-5.67-3.93-.34-.64-.67-1.27-1.01-1.91-6.14-6.15-12.28-12.31-18.41-18.46-10.35-10.66-20.69-21.32-31.04-31.98-2.59-2.59-5.17-5.19-7.76-7.78-5.3-12.24-10.8-24.41-15.75-36.79-1.02-2.56,0-5.93.07-8.92.05-2.25.07-4.51.11-6.76Z"/>
      <path class="cls-1" d="m89.21,496.54c-4.84,0-9.68,0-14.52,0,0-26.21-.06-52.42.07-78.63.01-2.24,1.21-4.47,1.85-6.7,0,0,0,0,0,0,5.59-3.52,7.85-3,12.6,2.92,0,27.47,0,54.94-.01,82.41Z"/>
      <path class="cls-1" d="m164.91,417.97c1.89,1.31,3.78,2.62,5.68,3.93.65.3,1.29.59,1.94.89,2.29-1.28,4.57-2.57,6.86-3.85,0,25.87.02,51.73.03,77.6-4.84,0-9.68,0-14.52,0,0-26.19.01-52.38.02-78.57Z"/>
      <path class="cls-15" d="m76.61,411.21c-.64,2.23-1.84,4.47-1.85,6.7-.13,26.21-.07,52.42-.07,78.63-.97,0-1.95,0-2.92,0,0-25.61-.01-51.22.02-76.83,0-3.69.12-7.43,4.83-8.51Z"/>
      <path class="cls-15" d="m145.49,397.6c6.14,6.15,12.28,12.31,18.41,18.46-7.25-1.41-10.67-7.64-15.25-12.33-1.54-1.57-2.14-4.06-3.16-6.13Z"/>
      <path class="cls-15" d="m89.22,414.13c-4.76-5.92-7.01-6.44-12.6-2.92.08-4.59,3.34-5.18,6.64-4.62,4.46.76,6.81,4.14,5.97,7.54Z"/>
      <path class="cls-15" d="m106.69,357.85c2.59,2.59,5.17,5.19,7.76,7.78-4.49-.69-7.09-3.27-7.76-7.78Z"/>
      <path class="cls-13" d="m82.52,174.75c-9.95.27-18.86-2.27-25.22-10.4-2.42-3.09-3.95-6.88-5.88-10.36-.06-.56-.13-1.11-.19-1.67,0-4.56,0-9.12,0-13.68.04-.29.11-.58.21-.86,3.82-8.37,9.1-15.35,18.59-17.5,3.98-.9,8.22-.71,12.34-1.01.32.01.65.02.97.03,0,18.11,0,36.22,0,54.33-.3.27-.6.55-.91.82l.1.3Z"/>
      <path class="cls-17" d="m51.22,138.64c0,4.56,0,9.12,0,13.68,0-4.56,0-9.12,0-13.68Z"/>
      <path class="cls-3" d="m83.33,173.62c0-18.11,0-36.22,0-54.33,0-.35-.02-.7-.03-1.05.02-3.06.02-6.13.07-9.19.1-6.25,2.93-9.09,9.27-9.1,27.75-.03,55.49-.12,83.24.09,4.57.03,7.01-1.43,8.82-5.61,4.51-10.43,10.54-19.73,22.05-23.59,2.15-.72,5.38-.8,7.01.36,1.25.89.86,4.21,1.01,6.46.36,5.23.04,10.58,1.08,15.66.89,4.36,4.05,7.16,9.22,6.67,2.87-.27,5.8.03,8.7.07.96,2.97,2.72,5.93,2.75,8.9.23,22.62.26,45.24.04,67.86-.06,5.9-.71,11.91-2,17.66-7.08,31.6-26.17,53.16-55.77,65.76-3.12,1.33-6.1,2.96-9.15,4.45-2.87-.24-5.86-.06-8.6-.8-10.38-2.79-20.68-5.87-31.01-8.84-5.34-4.07-10.87-7.92-16-12.24-15.98-13.43-25.42-30.8-29.51-51.07-1.07-5.28-.9-10.81-1.31-16.23.1-.28.14-.56.1-.85,0-.34.02-.69.02-1.03Zm85.43,22.32c2.5,2.66,4.28,2.66,6.79,0,3.55-.58,6.55-2.7,6.4-6.09-.12-2.59-2.22-5.56-4.29-7.42-1.35-1.22-4.2-.83-6.39-1.05-4.33-.45-7.2,1.65-8.23,5.67-1.13,4.41.89,7.2,5.73,8.89Zm3.89,32.92c7.28.47,13.59-2.25,19.56-5.91,4.63-2.84,5.9-7.24,3.38-11.03-2.48-3.72-6.2-4.06-10.97-1.41-8.21,4.57-16.5,5.95-24.97.31-3.99-2.65-8.77-1.9-10.65,1.24-2.54,4.22-1.52,8.22,3.14,10.92,6.33,3.66,13,6.39,20.52,5.88Zm-34.91-81.93c0-1.61-.08-3.23.02-4.84.25-4.25-2.34-5.97-5.95-6.8-3.44-.79-6.6.44-7.21,3.66-.9,4.72-1.24,9.77-.55,14.5.57,3.92,4.27,5.43,8.24,4.64,3.87-.76,5.76-3.24,5.46-7.29-.1-1.28-.01-2.58,0-3.87Zm82.37.28s.03,0,.05,0c0-1.29-.11-2.6.02-3.88.44-4.5-1.04-7.38-5.94-8.1-4.45-.65-6.87,1.99-7.9,5.37-1.5,4.94-1.97,10.39,1.58,14.66,1.44,1.73,4.79,2.77,7.12,2.55,1.81-.17,3.98-2.5,4.9-4.39.83-1.7.17-4.12.17-6.22Z"/>
      <path class="cls-19" d="m169.63,264.69c3.05-1.49,6.03-3.12,9.15-4.45,29.6-12.59,48.69-34.15,55.77-65.76,1.29-5.75,1.94-11.76,2-17.66.23-22.62.2-45.24-.04-67.86-.03-2.98-1.79-5.94-2.75-8.9,6.29-.05,12.59-.2,18.88-.13,5.47.06,8.11,2.98,8.3,8.37.12,3.64.63,7.28.96,10.92-.01,18.4-.03,36.81-.04,55.21-.32,1.51-.9,3.01-.93,4.52-.63,29.48-14.09,52.08-37.2,69.5-3.05,2.3-6.24,4.42-9.37,6.63-.91.3-1.86.5-2.72.91-13.3,6.28-27.18,9.75-42,8.72Z"/>
      <path class="cls-13" d="m261.85,174.42c.01-18.4.03-36.81.04-55.21,2.26-.05,4.53-.09,6.79-.14,10.72,2.01,19.02,7.19,23.28,17.69.28,5.82.57,11.64.85,17.45-2.85,6.68-6.32,12.97-13.05,16.42-3.48,1.79-7.38,2.75-11.09,4.08-2.27-.1-4.55-.2-6.82-.3Z"/>
      <path class="cls-20" d="m239.56,41.69c3.8,4.92,8.05,9.57,11.32,14.82,9.03,14.48,14.67,30.27,16.78,47.26-.97-1.09-2.59-2.07-2.8-3.29-3.46-19.97-11.38-37.93-23.77-53.97-.97-1.25-1.04-3.2-1.53-4.82Z"/>
      <path class="cls-20" d="m225.01,27.14c4.85,4.85,9.7,9.7,14.55,14.55-6.76-2.94-11.95-7.45-14.55-14.55Z"/>
      <path class="cls-20" d="m267.68,106.68c.32,2.26.63,4.53.95,6.79-4.46-1.68-3.66-4.1-.95-6.79Z"/>
      <path class="cls-10" d="m83.3,118.24c0,.35.02.7.03,1.05-.32-.01-.65-.02-.97-.03.31-.34.63-.68.94-1.02Z"/>
      <path class="cls-15" d="m179.41,496.54c0-25.87-.02-51.73-.02-77.6,1.09-1.86,1.84-4.05,3.31-5.54,17.81-17.97,35.76-35.8,53.56-53.79,1.85-1.87,3.24-4.33,4.38-6.74,3.01-6.35,5.76-12.83,8.61-19.26,5.48,1.12,10.99,2.12,16.42,3.42,3.89.92,7.68,2.24,11.52,3.38-3.74,9.41-3.49,19.35-2.4,28.98.68,6.02,4.29,11.71,6.58,17.55.07.3.19.57.36.82,5.36,7.67,10.21,15.77,16.21,22.91,6.5,7.73,14.08,14.56,21.19,21.78-.01,16.4-.36,32.81.11,49.2.21,7.33-2.77,11.79-8.86,14.88-13.59,0-27.18,0-40.77,0,0-14.38.01-28.77.01-43.15,0-12.28-.02-24.56.01-36.85.01-3.92-1.55-6.58-5.6-7.21-4.28-.66-7.29.92-8.27,5.38-.37,1.71-.66,3.48-.66,5.22-.04,25.53-.02,51.07-.01,76.6-25.23,0-50.45,0-75.68,0Z"/>
      <path class="cls-1" d="m310.38,496.54c6.09-3.09,9.07-7.55,8.86-14.88-.47-16.39-.12-32.8-.11-49.2,8.41,8.37,16.83,16.74,25.24,25.11-.01,8.79-.03,17.59-.04,26.38-.64,7.98-5.46,12.57-13.32,12.6-6.88.03-13.76,0-20.63-.01Z"/>
      <path class="cls-1" d="m255.09,496.54c0-25.53-.02-51.07.01-76.6,0-1.74.29-3.51.66-5.22.97-4.46,3.99-6.04,8.27-5.38,4.05.63,5.61,3.29,5.6,7.21-.03,12.28,0,24.56-.01,36.85,0,14.38,0,28.77-.01,43.15-4.84,0-9.68,0-14.52,0Z"/>
      <path class="cls-2" d="m426.14,371.38c-2.95,17.06-12.9,28.02-29.32,33.04-3.18.97-4.54,2.31-4.13,5.67.29,2.37.06,4.8.06,7.5,4.33.74,8.67,1.2,9.05,6.84.35,5.07-1.92,8.01-7,8.13-5.97.13-11.95.08-17.93.02-4.8-.05-7.91-2.47-8.31-6.33-.44-4.22,2.18-7.26,7.07-8.19.63-.12,1.27-.18,2.23-.31v-11.8c-11.25-3.12-21.28-8.62-27.5-19.22-2.67-4.56-6.19-8.94-5.45-14.9.07-.59-2.06-2.22-2.86-2.04-4.91,1.14-7.62-2-8.72-5.49-.63-2,1.1-5.74,2.94-7.29,2.48-2.09,5.94-3.38,9.58-1.35,1.87,1.05,4.07,1.51,6.13,2.24.66.4,1.31.8,1.97,1.2,1.32,2.9,3.12,5.69,3.87,8.73,2.41,9.83,10.4,21.07,19.49,21.86.25-.25.49-.51.74-.76.06-6.6.08-13.21.19-19.81.09-5.11,2.23-7.37,6.79-7.38,4.7-.01,6.71,2.1,6.79,7.27.1,6.76.13,13.52.22,20.28,0,.25.39.49,1.03,1.26,2.53-1.44,5.55-2.56,7.79-4.56,5.62-5.01,10.16-10.65,11.39-18.64,1.15-7.49,12.75-13.76,19.94-11,2.06.79,4.87,3.51,4.77,5.18-.16,2.51-2.21,5.27-4.19,7.15-1.39,1.33-4,1.39-6.06,2.02-.18.21-.37.43-.55.64Z"/>
      <path class="cls-4" d="m353.94,359.1c-.66-.4-1.31-.8-1.97-1.2.66.4,1.31.8,1.97,1.2Z"/>
      <path class="cls-4" d="m281.73,387.77c-.17-.25-.29-.53-.36-.82.12.27.24.55.36.82Z"/>
      <path class="cls-4" d="m378.03,388.94c-.25.25-.49.51-.74.76.25-.25.49-.51.74-.76Z"/>
      <path class="cls-4" d="m426.14,371.38c.18-.21.37-.43.55-.64-.11.28-.3.49-.55.64Z"/>
      <path class="cls-20" d="m261.85,174.42c2.27.1,4.55.2,6.82.3,0,44.51,0,89.02,0,133.53-5.15-1-10.31-1.99-15.46-2.99-.35-6.1-.92-12.19-.99-18.29-.04-4-2-5.41-5.55-5.81-4.44-.5-8.85-1.45-13.29-1.69-9.8-.53-10.87-1.09-13.57,8-.77,2.59-2.07,5.03-3.12,7.53-.75-3.55-2.04-7.09-2.16-10.66-.32-9.75-.16-19.52-.19-29.29,3.13-2.2,6.31-4.33,9.37-6.63,23.12-17.42,36.57-40.02,37.2-69.5.03-1.51.61-3.01.93-4.52Z"/>
      <path class="cls-21" d="m216.7,295.01c1.05-2.51,2.35-4.94,3.12-7.54,2.7-9.09,3.78-8.53,13.57-8,4.45.24,8.85,1.2,13.29,1.69,3.55.4,5.51,1.81,5.55,5.81.06,6.1.63,12.19.99,18.29.29,2.53,1.12,5.14.75,7.57-.83,5.46-2.23,10.83-3.44,16.23-.35,1.54-.85,3.05-1.28,4.57-2.85,6.43-5.61,12.9-8.61,19.26-1.14,2.41-2.53,4.87-4.38,6.74-17.8,17.98-35.75,35.81-53.56,53.79-1.47,1.48-2.23,3.67-3.31,5.54-2.29,1.28-4.57,2.57-6.86,3.85,3-8.44,6.01-16.87,8.99-25.31,4.42-12.55,8.92-25.07,13.19-37.66,1.95-5.74,3.41-11.65,5.1-17.48l-.04.04c.3-.29.6-.58.91-.86,1.76-5.16,3.53-10.33,5.29-15.49,3.58-10.34,7.16-20.67,10.74-31.01Z"/>
      <path class="cls-19" d="m205.96,326.02c-1.76,5.16-3.53,10.33-5.29,15.49-.3.29-.61.58-.91.86,0,0,.04-.04.04-.04-1.41.22-2.81.47-4.23.66-7.89,1.09-15.8,3.16-23.66,2.98-9.45-.21-18.85-2.33-28.27-3.62-4.72-13.62-9.47-27.24-14.15-40.88-.72-2.11-1.17-4.31-1.75-6.47.75-5.23,1.5-10.46,2.26-15.69,6.89,2.58,13.64,5.74,20.72,7.62,10.91,2.9,22.08,4.1,33.4,2.12,4.24-.74,5.88,1.85,5.94,5.66.08,5.98-.06,11.96.08,17.94.04,1.88.35,3.87,1.05,5.6,2.69,6.69,8.55,7.64,14.77,7.76Z"/>
      <path class="cls-10" d="m205.96,326.02c-6.23-.12-12.08-1.07-14.77-7.76-.7-1.73-1.01-3.72-1.05-5.6-.13-5.98,0-11.96-.08-17.94-.05-3.81-1.7-6.4-5.94-5.66-11.32,1.98-22.49.78-33.4-2.12-7.08-1.88-13.83-5.04-20.72-7.62,0-8.09,0-16.18.01-24.27,10.33,2.97,20.63,6.06,31.01,8.84,2.74.74,5.72.56,8.6.8,14.82,1.04,28.7-2.44,42-8.72.86-.41,1.81-.61,2.72-.91.03,9.76-.14,19.53.19,29.29.12,3.57,1.4,7.11,2.16,10.66-3.58,10.34-7.16,20.67-10.74,31.01Z"/>
      <path class="cls-9" d="m83.3,174.65c.04.29,0,.58-.1.85-.23-.25-.46-.5-.69-.76,0,0-.1-.3-.1-.3.29.1.58.16.88.2Z"/>
      <path class="cls-18" d="m143.64,342.36c9.42,1.29,18.82,3.41,28.27,3.62,7.86.17,15.77-1.9,23.66-2.98,1.41-.19,2.82-.44,4.23-.66-1.68,5.83-3.15,11.74-5.1,17.48-4.27,12.6-8.76,25.12-13.19,37.66-2.98,8.44-5.99,16.88-8.99,25.31-.65-.3-1.29-.59-1.94-.89-2.35-7.43-4.68-14.86-7.05-22.28-.87-2.72-1.83-5.41-2.77-8.11-5.7-16.38-11.41-32.77-17.12-49.15Z"/>
      <path class="cls-10" d="m83.3,174.65c-.3-.04-.59-.11-.88-.2.3-.28.61-.55.91-.83,0,.34-.02.69-.02,1.03Z"/>
      <path class="cls-5" d="m172.64,228.86c-7.51.51-14.18-2.22-20.52-5.88-4.66-2.7-5.68-6.69-3.14-10.92,1.89-3.14,6.67-3.9,10.65-1.24,8.46,5.64,16.75,4.26,24.97-.31,4.77-2.65,8.5-2.32,10.97,1.41,2.52,3.79,1.25,8.19-3.38,11.03-5.97,3.67-12.28,6.38-19.56,5.91Z"/>
      <path class="cls-12" d="m137.72,146.92c0,1.29-.08,2.59.01,3.87.3,4.04-1.59,6.52-5.46,7.29-3.97.78-7.66-.72-8.24-4.64-.69-4.73-.35-9.78.55-14.5.61-3.22,3.78-4.45,7.21-3.66,3.61.83,6.2,2.56,5.95,6.8-.09,1.61-.02,3.22-.03,4.84Z"/>
      <path class="cls-12" d="m220.11,147.2c0,2.1.65,4.52-.17,6.22-.92,1.9-3.09,4.22-4.9,4.39-2.33.22-5.69-.82-7.12-2.55-3.55-4.26-3.08-9.72-1.58-14.66,1.03-3.39,3.45-6.03,7.9-5.37,4.9.72,6.38,3.59,5.94,8.1-.12,1.28-.02,2.58-.02,3.88-.02,0-.03,0-.05,0Z"/>
      <path class="cls-19" d="m168.75,195.94c-4.84-1.68-6.86-4.47-5.73-8.89,1.03-4.03,3.9-6.12,8.23-5.67,2.19.23,5.04-.17,6.39,1.05,2.07,1.87,4.17,4.83,4.29,7.42.16,3.39-2.85,5.51-6.4,6.09-2.26,0-4.52,0-6.79,0Z"/>
      <path class="cls-16" d="m168.75,195.94c2.26,0,4.52,0,6.79,0-2.51,2.66-4.28,2.66-6.79,0Z"/>
      <path class="cls-18" d="m199.76,342.37c.3-.29.61-.58.91-.86-.3.29-.61.58-.91.86Z"/>
    </g>
  </g>
</svg>